<svg width="44" height="43" viewBox="0 0 44 43" fill="none" xmlns="http://www.w3.org/2000/svg">
    <rect x="0.193359" width="43" height="43" fill="#2E2E2E"/>
    <path d="M27.885 21.6262C27.8741 19.8229 28.714 18.4639 30.4102 17.4617C29.4615 16.1397 28.0263 15.4125 26.1345 15.2724C24.3432 15.1349 22.3834 16.2877 21.6658 16.2877C20.9074 16.2877 19.1732 15.32 17.8087 15.32C14.9927 15.3623 12 17.504 12 21.8616C12 23.1492 12.2419 24.4792 12.7258 25.8489C13.3727 27.6522 15.7049 32.0705 18.1376 31.9991C19.4097 31.9701 20.3094 31.1213 21.9648 31.1213C23.5712 31.1213 24.403 31.9991 25.8219 31.9991C28.2764 31.9648 30.3857 27.9483 31 26.1398C27.7083 24.63 27.885 21.7188 27.885 21.6262ZM25.0282 13.5616C26.4063 11.9699 26.2813 10.5209 26.2405 10C25.0227 10.0687 23.6147 10.8065 22.8129 11.7134C21.9295 12.6864 21.4103 13.8895 21.5217 15.2459C22.8373 15.3438 24.0388 14.6854 25.0282 13.5616Z" fill="white"/>
</svg>
