<svg width="104" height="104" viewBox="0 0 104 104" fill="none" xmlns="http://www.w3.org/2000/svg">
    <g clip-path="url(#clip0_82_100)">
        <path d="M79.0948 38.3566L57.9313 42.0199L69.7573 6.57835C70.7848 3.49802 66.7015 1.31642 64.7146 3.89112L21.2765 60.1842C19.6432 62.3009 21.5184 65.3202 24.1391 64.7957L43.0191 61.0181L31.225 96.4954C30.2088 99.5522 34.2201 101.705 36.2244 99.2356L81.839 43.0381C83.5222 40.9638 81.7265 37.9014 79.0948 38.3566V38.3566ZM41.7349 83.2506L50.0918 58.1118C50.7907 56.01 48.9586 53.9193 46.7738 54.3564L30.595 57.5936L58.8384 20.9922L50.8994 44.7848C50.2085 46.8555 51.9781 48.9324 54.1423 48.557L72.4698 45.3846L41.7349 83.2506Z" fill="url(#paint0_linear_82_100)"/>
        <path d="M75.1859 84.7182L68.2437 84.2973L72.2523 77.2025C73.0396 75.8091 72.5484 74.0415 71.155 73.2544C69.7615 72.4669 67.994 72.9584 67.2068 74.3517L60.917 85.4837C59.6378 87.741 61.1127 89.3221 63.3157 89.8045L70.2416 90.2245L66.1802 97.5274C65.4024 98.926 65.9056 100.69 67.3042 101.468C68.7054 102.247 70.4684 101.74 71.2447 100.344L77.543 89.0192C78.5774 87.1585 77.3005 84.8425 75.1859 84.7182V84.7182Z" fill="url(#paint1_linear_82_100)"/>
        <path d="M33.679 1.60287C32.2804 0.825233 30.5161 1.32839 29.7383 2.72683L23.4401 14.0517C22.4158 15.8937 23.6573 18.2587 25.8621 18.3556L32.7406 18.6577L28.721 25.8853C27.9432 27.2839 28.4466 29.048 29.845 29.826C31.2463 30.6053 33.0094 30.0978 33.7857 28.702L40.084 17.3771C41.1318 15.4929 39.8145 13.1679 37.6787 13.074L30.7835 12.7712L34.803 5.5436C35.5808 4.14498 35.0775 2.3807 33.679 1.60287V1.60287Z" fill="url(#paint2_linear_82_100)"/>
    </g>
    <defs>
        <linearGradient id="paint0_linear_82_100" x1="53.7501" y1="2.17047" x2="49.4094" y2="100.989" gradientUnits="userSpaceOnUse">
            <stop stop-color="#5DDFAC"/>
            <stop offset="1" stop-color="#6EAFC6"/>
        </linearGradient>
        <linearGradient id="paint1_linear_82_100" x1="69.8113" y1="72.8796" x2="68.5396" y2="101.829" gradientUnits="userSpaceOnUse">
            <stop stop-color="#5DDFAC"/>
            <stop offset="1" stop-color="#6EAFC6"/>
        </linearGradient>
        <linearGradient id="paint2_linear_82_100" x1="32.3993" y1="1.23991" x2="31.1277" y2="30.1893" gradientUnits="userSpaceOnUse">
            <stop stop-color="#5DDFAC"/>
            <stop offset="1" stop-color="#6EAFC6"/>
        </linearGradient>
        <clipPath id="clip0_82_100">
            <rect width="98.9135" height="98.9135" fill="white" transform="translate(4.34082) rotate(2.51518)"/>
        </clipPath>
    </defs>
</svg>
