<svg width="159" height="21" viewBox="0 0 159 21" fill="none" xmlns="http://www.w3.org/2000/svg">
    <path d="M9 21C8.57812 21 8.21875 20.8516 7.92188 20.5547C7.64062 20.2578 7.5 19.9062 7.5 19.5C7.5 19.0781 7.64062 18.7188 7.92188 18.4219C8.21875 18.1406 8.57812 18 9 18C9.40625 18 9.75781 18.1406 10.0547 18.4219C10.3516 18.7188 10.5 19.0781 10.5 19.5C10.5 19.9062 10.3516 20.2578 10.0547 20.5547C9.75781 20.8516 9.40625 21 9 21ZM0 15V6H3V12H15V6H18V15H0ZM3 3C2.15625 3 1.44531 2.71094 0.867188 2.13281C0.289062 1.53906 0 0.828125 0 0H18C18 0.84375 17.7031 1.55469 17.1094 2.13281C16.5156 2.71094 15.8125 3 15 3H3ZM21.72 15V3H24.72V12H32.22C32.6262 12 32.9778 11.8594 33.2747 11.5781C33.5716 11.2812 33.72 10.9219 33.72 10.5V3H36.72V12C36.72 12.8438 36.4231 13.5547 35.8294 14.1328C35.2356 14.7109 34.5325 15 33.72 15H21.72ZM40.44 15V6C40.44 5.17188 40.7291 4.46875 41.3072 3.89062C41.9009 3.29688 42.6119 3 43.44 3H55.44V15H52.44V6H44.94C44.5181 6 44.1587 6.14844 43.8619 6.44531C43.5806 6.74219 43.44 7.09375 43.44 7.5V12H52.44C52.44 12.8438 52.1431 13.5547 51.5494 14.1328C50.9556 14.7109 50.2525 15 49.44 15H40.44ZM65.16 15C64.3162 15 63.6053 14.7109 63.0272 14.1328C62.4491 13.5391 62.16 12.8281 62.16 12V6H59.16C59.16 5.17188 59.4491 4.46875 60.0272 3.89062C60.6209 3.29688 61.3319 3 62.16 3V0H65.16V3H74.16C74.16 3.84375 73.8631 4.55469 73.2694 5.13281C72.6756 5.71094 71.9725 6 71.16 6H65.16V10.5C65.16 10.9219 65.3006 11.2812 65.5819 11.5781C65.8787 11.8594 66.2381 12 66.66 12H74.16C74.16 12.8438 73.8631 13.5547 73.2694 14.1328C72.6756 14.7109 71.9725 15 71.16 15H65.16ZM77.88 15V6H91.38C91.7862 6 92.1378 5.85938 92.4347 5.57812C92.7316 5.28125 92.88 4.92188 92.88 4.5V3H77.88V0H95.88V6C95.88 6.84375 95.5831 7.55469 94.9894 8.13281C94.3956 8.71094 93.6925 9 92.88 9H80.88V15H77.88ZM110.1 12C110.506 12 110.858 11.8594 111.155 11.5781C111.452 11.2812 111.6 10.9219 111.6 10.5V6H102.6V10.5C102.6 10.9219 102.741 11.2812 103.022 11.5781C103.319 11.8594 103.678 12 104.1 12H110.1ZM102.6 15C101.756 15 101.045 14.7109 100.467 14.1328C99.8891 13.5391 99.6 12.8281 99.6 12V3H114.6V12C114.6 12.8438 114.303 13.5547 113.709 14.1328C113.116 14.7109 112.412 15 111.6 15H102.6ZM118.32 15V3H121.32V15H118.32ZM125.04 15V3H137.04C137.868 3 138.571 3.29688 139.149 3.89062C139.743 4.48438 140.04 5.1875 140.04 6V15H137.04V7.5C137.04 7.09375 136.892 6.74219 136.595 6.44531C136.298 6.14844 135.946 6 135.54 6H128.04V15H125.04ZM149.76 15C148.916 15 148.205 14.7109 147.627 14.1328C147.049 13.5391 146.76 12.8281 146.76 12V6H143.76C143.76 5.17188 144.049 4.46875 144.627 3.89062C145.221 3.29688 145.932 3 146.76 3V0H149.76V3H158.76C158.76 3.84375 158.463 4.55469 157.869 5.13281C157.276 5.71094 156.572 6 155.76 6H149.76V10.5C149.76 10.9219 149.901 11.2812 150.182 11.5781C150.479 11.8594 150.838 12 151.26 12H158.76C158.76 12.8438 158.463 13.5547 157.869 14.1328C157.276 14.7109 156.572 15 155.76 15H149.76Z" fill="url(#paint0_linear_50_69)"/>
    <defs>
        <linearGradient id="paint0_linear_50_69" x1="0" y1="9" x2="183.761" y2="9" gradientUnits="userSpaceOnUse">
            <stop stop-color="#6EAFC6"/>
            <stop offset="1" stop-color="#5DDFAC"/>
        </linearGradient>
    </defs>
</svg>
